<svg width="100" height="100" viewBox="0 0 100 100" fill="none" xmlns="http://www.w3.org/2000/svg">
<path d="M54.6875 29.6875H57.8125V32.8125H54.6875V29.6875ZM64.0625 29.6875H67.1875V32.8125H64.0625V29.6875ZM73.4375 29.6875H76.5625V32.8125H73.4375V29.6875ZM50 34.375H53.125V37.5H50V34.375ZM59.375 34.375H62.5V37.5H59.375V34.375ZM68.75 34.375H71.875V37.5H68.75V34.375ZM78.125 34.375H81.25V37.5H78.125V34.375Z" fill="white"/>
<path d="M87.9532 69.7344L90.2657 50H92.1875C92.6019 50 92.9994 49.8354 93.2924 49.5424C93.5854 49.2494 93.75 48.8519 93.75 48.4375V42.1875C93.75 41.7731 93.5854 41.3757 93.2924 41.0827C92.9994 40.7896 92.6019 40.625 92.1875 40.625H89.9688C90.4931 39.4242 90.7071 38.1108 90.5909 36.8057C90.4747 35.5006 90.0321 34.2456 89.3038 33.1564C88.5756 32.0671 87.5851 31.1785 86.4234 30.5723C85.2618 29.9662 83.9663 29.6619 82.6563 29.6875C82.2961 27.9229 81.3372 26.3369 79.9421 25.198C78.5469 24.0591 76.8011 23.4372 75 23.4375C74.2811 23.4341 73.5655 23.5341 72.875 23.7344C72.2939 22.287 71.2929 21.0467 70.0008 20.1731C68.7087 19.2995 67.1847 18.8327 65.625 18.8327C64.0653 18.8327 62.5414 19.2995 61.2493 20.1731C59.9572 21.0467 58.9561 22.287 58.375 23.7344C57.6846 23.5341 56.9689 23.4341 56.25 23.4375C54.449 23.4372 52.7032 24.0591 51.308 25.198C49.9128 26.3369 48.954 27.9229 48.5938 29.6875C47.2837 29.6619 45.9883 29.9662 44.8267 30.5723C43.665 31.1785 42.6745 32.0671 41.9462 33.1564C41.218 34.2456 40.7754 35.5006 40.6592 36.8057C40.543 38.1108 40.7569 39.4242 41.2813 40.625H39.0625C38.6481 40.625 38.2507 40.7896 37.9577 41.0827C37.6647 41.3757 37.5 41.7731 37.5 42.1875V48.4375C37.5 48.8519 37.6647 49.2494 37.9577 49.5424C38.2507 49.8354 38.6481 50 39.0625 50H40.9844L43.1875 68.75H23.0938L22.0469 45.9063L24.5469 43.4063C24.6917 43.2603 24.8063 43.0871 24.8841 42.8968C24.9618 42.7064 25.0012 42.5025 25 42.2969V35.8282C25.0012 35.6225 24.9618 35.4187 24.8841 35.2283C24.8063 35.0379 24.6917 34.8648 24.5469 34.7188L20.3125 30.4844V21.1094L24.2032 17.1875H32.8125V20.3125H31.7813C31.3714 20.3143 30.9786 20.477 30.6875 20.7657L27.0157 24.4375C26.727 24.7286 26.5643 25.1214 26.5625 25.5313V30.7188C26.5643 31.1287 26.727 31.5215 27.0157 31.8125L30.6875 35.4844L32.8907 33.2657L29.6875 30.0625V26.1875L32.4375 23.4375H36.3125L39.0625 26.1875V30.0625L35.9375 33.2657L38.1407 35.4844L41.8125 31.8125C42.1012 31.5215 42.2639 31.1287 42.2657 30.7188V25.5313C42.2639 25.1214 42.1012 24.7286 41.8125 24.4375L38.1407 20.7657C37.8496 20.477 37.4568 20.3143 37.0469 20.3125H35.9375V17.1875H43.75C44.1644 17.1875 44.5619 17.0229 44.8549 16.7299C45.1479 16.4369 45.3125 16.0394 45.3125 15.625V9.37503C45.3125 8.96063 45.1479 8.5632 44.8549 8.27017C44.5619 7.97715 44.1644 7.81253 43.75 7.81253H24.2032L19.9688 3.57815C19.8228 3.43334 19.6496 3.31877 19.4593 3.24101C19.2689 3.16325 19.065 3.12384 18.8594 3.12503H12.3907C12.185 3.12384 11.9812 3.16325 11.7908 3.24101C11.6004 3.31877 11.4273 3.43334 11.2813 3.57815L6.70316 8.15628C6.55835 8.30228 6.44378 8.47543 6.36602 8.6658C6.28827 8.85617 6.24885 9.06002 6.25004 9.26565V15.7344C6.24885 15.94 6.28827 16.1439 6.36602 16.3343C6.44378 16.5246 6.55835 16.6978 6.70316 16.8438L10.9375 21.0782V30.4532L6.70316 34.7188C6.55835 34.8648 6.44378 35.0379 6.36602 35.2283C6.28827 35.4187 6.24885 35.6225 6.25004 35.8282V42.2969C6.24885 42.5025 6.28827 42.7064 6.36602 42.8968C6.44378 43.0871 6.55835 43.2603 6.70316 43.4063L9.20316 45.9063L8.01567 72.1719C5.84655 74.0461 4.30205 76.5385 3.58908 79.3151C2.87612 82.0917 3.02876 85.0198 4.02655 87.7072C5.02435 90.3946 6.81962 92.7129 9.17185 94.3515C11.5241 95.99 14.3209 96.8705 17.1875 96.875H82.8125C86.0833 96.8685 89.2494 95.7221 91.7661 93.6331C94.2828 91.5441 95.9926 88.6432 96.6013 85.4296C97.2099 82.216 96.6794 78.8907 95.101 76.0261C93.5225 73.1614 90.9949 70.9366 87.9532 69.7344ZM43.75 37.5C43.75 36.2568 44.2439 35.0645 45.123 34.1855C46.0021 33.3064 47.1943 32.8125 48.4375 32.8125C48.8286 32.8213 49.2171 32.8791 49.5938 32.9844C49.8244 33.0498 50.0669 33.0612 50.3026 33.0179C50.5383 32.9745 50.7609 32.8775 50.9532 32.7344C51.1472 32.5889 51.3047 32.4001 51.4132 32.1832C51.5217 31.9662 51.5782 31.727 51.5782 31.4844C51.5819 31.4059 51.5767 31.3273 51.5625 31.25C51.5625 30.0068 52.0564 28.8145 52.9355 27.9355C53.8146 27.0564 55.0068 26.5625 56.25 26.5625C57.0943 26.5722 57.9202 26.8097 58.6407 27.25C58.8687 27.3731 59.1237 27.4375 59.3828 27.4375C59.642 27.4375 59.897 27.3731 60.125 27.25C60.3606 27.1332 60.5628 26.9588 60.713 26.743C60.8632 26.5273 60.9566 26.2771 60.9844 26.0157C61.1436 24.8983 61.7006 23.8759 62.5531 23.1363C63.4056 22.3966 64.4964 21.9894 65.625 21.9894C66.7537 21.9894 67.8444 22.3966 68.6969 23.1363C69.5494 23.8759 70.1064 24.8983 70.2657 26.0157C70.2935 26.2771 70.3868 26.5273 70.537 26.743C70.6873 26.9588 70.8895 27.1332 71.125 27.25C71.3531 27.3731 71.6081 27.4375 71.8672 27.4375C72.1263 27.4375 72.3814 27.3731 72.6094 27.25C73.3298 26.8097 74.1558 26.5722 75 26.5625C76.2432 26.5625 77.4355 27.0564 78.3146 27.9355C79.1937 28.8145 79.6875 30.0068 79.6875 31.25C79.6875 31.25 79.6875 31.4688 79.6875 31.5157C79.6875 31.7582 79.744 31.9975 79.8525 32.2144C79.961 32.4314 80.1185 32.6201 80.3125 32.7657C80.5048 32.9088 80.7274 33.0058 80.9631 33.0491C81.1988 33.0925 81.4413 33.081 81.6719 33.0156C82.0423 32.901 82.4254 32.8328 82.8125 32.8125C84.0557 32.8125 85.248 33.3064 86.1271 34.1855C87.0062 35.0645 87.5 36.2568 87.5 37.5C87.4889 38.6584 87.0491 39.7717 86.2657 40.625H44.9844C44.2009 39.7717 43.7612 38.6584 43.75 37.5ZM40.625 43.75H90.625V46.875H40.625V43.75ZM44.125 50H87.125L84.9063 68.9219C84.214 68.8091 83.5139 68.7516 82.8125 68.75H46.3282L44.125 50ZM14.0625 21.875H17.1875V29.6875H14.0625V21.875ZM42.1875 14.0625H25V10.9375H42.1875V14.0625ZM9.37504 9.90628L13.0313 6.25003H18.2188L21.875 9.90628V15.0938L18.2188 18.75H13.0313L9.37504 15.0938V9.90628ZM9.37504 36.4688L13.0313 32.8125H18.2188L21.875 36.4688V41.6563L18.2188 45.3125H13.0313L9.37504 41.6563V36.4688ZM12.2188 48.4375H19.0313L19.9532 68.75H17.1875C15.128 68.75 13.0943 69.2091 11.2344 70.0938L12.2188 48.4375ZM82.8125 93.75H17.1875C14.2867 93.75 11.5047 92.5977 9.45356 90.5465C7.40238 88.4953 6.25004 85.7133 6.25004 82.8125C6.25004 79.9117 7.40238 77.1297 9.45356 75.0785C11.5047 73.0274 14.2867 71.875 17.1875 71.875H82.8125C85.7133 71.875 88.4953 73.0274 90.5465 75.0785C92.5977 77.1297 93.75 79.9117 93.75 82.8125C93.75 85.7133 92.5977 88.4953 90.5465 90.5465C88.4953 92.5977 85.7133 93.75 82.8125 93.75Z" fill="white"/>
<path d="M82.8125 75H71.875V78.125H76.5625C75.5185 79.4645 74.9515 81.1142 74.9515 82.8125C74.9515 84.5108 75.5185 86.1605 76.5625 87.5H56.25C57.294 86.1605 57.861 84.5108 57.861 82.8125C57.861 81.1142 57.294 79.4645 56.25 78.125H68.75V75H17.1875C15.1155 75 13.1284 75.8231 11.6632 77.2882C10.1981 78.7534 9.375 80.7405 9.375 82.8125C9.375 84.8845 10.1981 86.8716 11.6632 88.3368C13.1284 89.8019 15.1155 90.625 17.1875 90.625H28.125V87.5H23.4375C24.4815 86.1605 25.0485 84.5108 25.0485 82.8125C25.0485 81.1142 24.4815 79.4645 23.4375 78.125H43.75C42.706 79.4645 42.139 81.1142 42.139 82.8125C42.139 84.5108 42.706 86.1605 43.75 87.5H31.25V90.625H82.8125C84.8845 90.625 86.8716 89.8019 88.3368 88.3368C89.8019 86.8716 90.625 84.8845 90.625 82.8125C90.625 80.7405 89.8019 78.7534 88.3368 77.2882C86.8716 75.8231 84.8845 75 82.8125 75ZM21.875 82.8125C21.875 83.7396 21.6001 84.6459 21.085 85.4167C20.5699 86.1876 19.8379 86.7884 18.9813 87.1432C18.1248 87.498 17.1823 87.5908 16.273 87.4099C15.3637 87.2291 14.5285 86.7826 13.8729 86.1271C13.2174 85.4715 12.7709 84.6363 12.5901 83.727C12.4092 82.8177 12.502 81.8752 12.8568 81.0187C13.2116 80.1621 13.8124 79.4301 14.5833 78.915C15.3541 78.3999 16.2604 78.125 17.1875 78.125C18.4307 78.125 19.623 78.6189 20.5021 79.4979C21.3811 80.377 21.875 81.5693 21.875 82.8125ZM45.3125 82.8125C45.3125 81.8854 45.5874 80.9791 46.1025 80.2083C46.6176 79.4374 47.3496 78.8366 48.2062 78.4818C49.0627 78.127 50.0052 78.0342 50.9145 78.2151C51.8238 78.3959 52.659 78.8424 53.3146 79.4979C53.9701 80.1535 54.4166 80.9887 54.5974 81.898C54.7783 82.8073 54.6855 83.7498 54.3307 84.6063C53.9759 85.4629 53.3751 86.1949 52.6042 86.71C51.8334 87.2251 50.9271 87.5 50 87.5C48.7568 87.5 47.5645 87.0061 46.6854 86.1271C45.8064 85.248 45.3125 84.0557 45.3125 82.8125ZM82.8125 87.5C81.8854 87.5 80.9791 87.2251 80.2083 86.71C79.4374 86.1949 78.8366 85.4629 78.4818 84.6063C78.127 83.7498 78.0342 82.8073 78.2151 81.898C78.3959 80.9887 78.8424 80.1535 79.4979 79.4979C80.1535 78.8424 80.9887 78.3959 81.898 78.2151C82.8073 78.0342 83.7498 78.127 84.6063 78.4818C85.4629 78.8366 86.1949 79.4374 86.71 80.2083C87.2251 80.9791 87.5 81.8854 87.5 82.8125C87.5 84.0557 87.0061 85.248 86.1271 86.1271C85.248 87.0061 84.0557 87.5 82.8125 87.5ZM20.3125 12.5C20.3125 11.5729 20.0376 10.6666 19.5225 9.89577C19.0074 9.12491 18.2754 8.5241 17.4188 8.16932C16.5623 7.81453 15.6198 7.7217 14.7105 7.90257C13.8012 8.08344 12.966 8.52988 12.3104 9.18544C11.6549 9.841 11.2084 10.6762 11.0276 11.5855C10.8467 12.4948 10.9395 13.4373 11.2943 14.2938C11.6491 15.1504 12.2499 15.8824 13.0208 16.3975C13.7916 16.9126 14.6979 17.1875 15.625 17.1875C16.8682 17.1875 18.0605 16.6936 18.9396 15.8146C19.8186 14.9355 20.3125 13.7432 20.3125 12.5ZM14.0625 12.5C14.0625 12.191 14.1541 11.8889 14.3258 11.6319C14.4975 11.375 14.7415 11.1747 15.0271 11.0564C15.3126 10.9382 15.6267 10.9072 15.9298 10.9675C16.2329 11.0278 16.5113 11.1766 16.7299 11.3951C16.9484 11.6137 17.0972 11.8921 17.1575 12.1952C17.2178 12.4983 17.1868 12.8124 17.0686 13.0979C16.9503 13.3835 16.75 13.6275 16.4931 13.7992C16.2361 13.9709 15.934 14.0625 15.625 14.0625C15.2106 14.0625 14.8132 13.8979 14.5201 13.6049C14.2271 13.3118 14.0625 12.9144 14.0625 12.5ZM20.3125 39.0625C20.3125 38.1354 20.0376 37.2291 19.5225 36.4583C19.0074 35.6874 18.2754 35.0866 17.4188 34.7318C16.5623 34.377 15.6198 34.2842 14.7105 34.4651C13.8012 34.6459 12.966 35.0924 12.3104 35.7479C11.6549 36.4035 11.2084 37.2387 11.0276 38.148C10.8467 39.0573 10.9395 39.9998 11.2943 40.8563C11.6491 41.7129 12.2499 42.445 13.0208 42.96C13.7916 43.4751 14.6979 43.75 15.625 43.75C16.8682 43.75 18.0605 43.2561 18.9396 42.3771C19.8186 41.498 20.3125 40.3057 20.3125 39.0625ZM14.0625 39.0625C14.0625 38.7535 14.1541 38.4514 14.3258 38.1944C14.4975 37.9375 14.7415 37.7372 15.0271 37.6189C15.3126 37.5007 15.6267 37.4697 15.9298 37.53C16.2329 37.5903 16.5113 37.7391 16.7299 37.9576C16.9484 38.1762 17.0972 38.4546 17.1575 38.7577C17.2178 39.0608 17.1868 39.3749 17.0686 39.6604C16.9503 39.946 16.75 40.19 16.4931 40.3617C16.2361 40.5334 15.934 40.625 15.625 40.625C15.2106 40.625 14.8132 40.4604 14.5201 40.1674C14.2271 39.8743 14.0625 39.4769 14.0625 39.0625Z" fill="white"/>
<path d="M15.625 81.25H18.75V84.375H15.625V81.25ZM48.4375 81.25H51.5625V84.375H48.4375V81.25ZM81.25 81.25H84.375V84.375H81.25V81.25Z" fill="white"/>
</svg>
